<svg id="Capa_1" data-name="Capa 1" xmlns="http://www.w3.org/2000/svg" viewBox="0 0 400.12 399.63"><defs><style>.cls-1{fill:#01c08c;}.cls-2{fill:#8a8a8a;}</style></defs><title>Entrepeers verde gris Isotipo</title><path class="cls-1" d="M494.48,197.56c8.12,3,9.95,6.31,8,14.66-4.78,20.45-10.31,40.69-17.07,60.58-15.25,45-38.37,85.58-67.92,122.58-5.07,6.34-11.17,11.86-16.72,17.83a6.51,6.51,0,0,0-1.61,3Q393,447.63,387,479c-1.07,5.48-2.13,11-3.28,16.44a5.68,5.68,0,0,1-1.35,2.65q-26.77,27.35-53.61,54.62c-6.39,6.51-12.71,13.07-19.14,19.54a13.29,13.29,0,0,1-11,3.8c-4.29-.37-6.7-3.16-7.68-8-1.11-5.41,0-10.65,1.05-15.9q6-29.22,12-58.42a4.07,4.07,0,0,1,1.53-2.46c7.21-4.59,14.49-9.07,21.76-13.57a11.36,11.36,0,0,1,1.15-.52c-3.29,18.08-6.53,35.89-9.76,53.71l.48.23c3.59-3.49,7.2-7,10.77-10.49q16.15-15.9,32.27-31.85a6.19,6.19,0,0,0,1.63-3.05q4.56-23.51,8.93-47.07a19.84,19.84,0,0,0,.13-6.2c-.95-7-5.61-10.42-12.64-9.59-.53.06-1.07.09-2.13.17l8.73-7.72-52.5-53.58c-4.68,4.43-9.08,8.59-13.48,12.77-3.31,3.13-6.58,6.3-9.91,9.41-3.65,3.42-9.8,3.5-14.17.26-4-3-5.09-7.58-2.72-12.38a18,18,0,0,1,3.26-4.69c19.75-19.72,39.24-39.73,59.49-58.93,11.81-11.2,32.7-15.83,50.29-1.79,14.36,11.45,17.88,29.75,8.77,46.79a33.76,33.76,0,0,1-5.5,7.46c-7.58,7.8-15.34,15.42-23.17,23.25,5.21,5.61,10.36,11.14,15.7,16.87,2.28-2.51,4.49-4.89,6.63-7.33,18.07-20.57,35-42,49.11-65.54,6.49-10.81,10.94-22.5,15.76-34.06,7.5-18,15.07-35.92,20.65-54.61,1.21-4,2-8.21,2.88-12.35a39.27,39.27,0,0,0,.35-5.24C400.93,241.12,334.72,278.31,281.37,338c.05-.79.07-1.31.1-1.83.45-6.65-3.09-10.44-9.77-9.84a122.6,122.6,0,0,0-12.94,2.4q-22.18,4.47-44.36,9a5.51,5.51,0,0,0-2.7,1.33q-21.27,21.15-42.45,42.4a7,7,0,0,0-.64.88l49.89-9.23c-2.53,6.26-5.21,12.12-7.23,18.2-1.41,4.2-3.71,5.93-8.13,6.72-21.61,3.88-43.11,8.36-64.72,12.25-4.43.79-8.7-1.3-11.62-4.94-2.61-3.25-1.88-6.94.07-10.13a49,49,0,0,1,6.9-9.13c22.3-22.27,44.73-44.4,67.07-66.63a8.92,8.92,0,0,1,5-2.4q38.61-7.24,77.2-14.62a11,11,0,0,0,4.63-2.63c24.18-20.75,49-40.68,77-56.12A444.25,444.25,0,0,1,486,198.2c.9-.2,1.8-.43,2.7-.64ZM351.66,367.69a1.69,1.69,0,0,0,.41-.24c7.74-6.92,15.66-13.66,23.15-20.85a14.29,14.29,0,0,0,4-15.21c-3.55-11-16.89-17.95-28.86-7.14-3.13,2.82-5.85,6.1-8.75,9.19-4,4.23-7.93,8.48-11.71,12.53Z" transform="translate(-103.07 -197.56)"/><path class="cls-2" d="M226.33,458.69c-3.61-3.36-7.14-6.58-10.61-9.88-2.2-2.09-4.17-4.44-6.48-6.4-5-4.27-6.3-9.69-4.3-15.59a154.15,154.15,0,0,1,7.6-18.33c11.65-23.78,25.52-46.3,39.83-68.56,4.45-6.92,13.51-8.23,18.84-2.95,3.62,3.57,4.19,8.51,1.09,12.61-18.09,23.91-31.11,50.75-44.66,77.28a3,3,0,0,0,0,2.67c4.75,4.74,9.64,9.33,15,14.43,1.25-1.47,2.35-2.94,3.62-4.24q12.28-12.64,24.65-25.21c3.94-4,9.82-5.15,14.25-2.8a9.55,9.55,0,0,1,5.11,10.43,16,16,0,0,1-4.56,8.51c-9.14,8.84-18.14,17.81-27.2,26.74-.39.38-.74.81-1.28,1.39,3.46,3.52,6.85,7,10.27,10.42,4.87,4.9,4.9,4.94,11.14,2.17,17.8-7.89,34.4-17.95,50.78-28.39,4.25-2.7,8.39-5.56,12.63-8.29,3.28-2.11,6.78-3.63,10.81-3,7,1.09,10.85,8.75,7.05,14.73a29,29,0,0,1-7.07,7.34c-10.91,8.17-23,14.5-35,20.75-13,6.76-26.23,13.25-39.38,19.81-4.36,2.17-8.94,3.15-13.63,1.2a16.1,16.1,0,0,1-4.73-3.15c-6.2-5.88-12.28-11.89-18.59-18-1.55,1.49-3.05,2.89-4.51,4.32-4.68,4.59-9.31,9.23-14,13.78-3,2.94-6.66,4.07-10.79,2.64s-6.76-4.24-7.34-8.65c-.5-3.86,1.17-7,3.81-9.67q7.58-7.68,15.15-15.37C224.47,460.72,225.1,460,226.33,458.69Z" transform="translate(-103.07 -197.56)"/><path class="cls-2" d="M202.25,509.67a10.33,10.33,0,0,1-3.37,7.7q-24.16,24-48.31,48c-5,5-9.92,10-14.94,14.91-2.86,2.81-6.23,4.33-10.38,3.74-8.72-1.23-10.26-10-7.43-15a13.36,13.36,0,0,1,2.16-2.86q31.54-31.7,63.14-63.36c7.43-7.46,16.43-2.41,18.67,4.62A15.84,15.84,0,0,1,202.25,509.67Z" transform="translate(-103.07 -197.56)"/><path class="cls-2" d="M257.88,525.65a11.92,11.92,0,0,1-3.26,8c-2.93,3.28-5.92,6.5-9,9.61q-19,19-38.11,37.86-6.55,6.48-13.25,12.85c-6.15,5.86-16.55,3.31-18.59-4.58-1-4,.44-7.4,3.26-10.21q27.65-27.47,55.34-54.88c1.7-1.69,3.35-3.44,5.1-5.08,6.3-5.91,15.75-3.66,18.13,4.3A17.71,17.71,0,0,1,257.88,525.65Z" transform="translate(-103.07 -197.56)"/><path class="cls-2" d="M174.57,442.72c4.51.48,8.07,2.44,9.93,6.76s.73,8-2.4,11.19c-7.68,7.82-15.43,15.57-23.15,23.35q-18.58,18.74-37.18,37.47c-4.2,4.22-9.87,5-14.17,2.16a10.36,10.36,0,0,1-3.55-13,19.74,19.74,0,0,1,3.81-5.45q29.56-29.67,59.23-59.22A9.72,9.72,0,0,1,174.57,442.72Z" transform="translate(-103.07 -197.56)"/></svg>