<svg id="Capa_1" data-name="Capa 1" xmlns="http://www.w3.org/2000/svg" viewBox="0 0 441.45 541.09"><defs><style>.cls-1{fill:#fff;}</style></defs><title>Entrepeers blanco imagotipo</title><path class="cls-1" d="M511.79,181.42c8.12,3,9.95,6.31,8,14.66-4.78,20.45-10.31,40.69-17.06,60.58-15.26,45-38.38,85.58-67.93,122.58-5.07,6.34-11.17,11.86-16.72,17.83a6.6,6.6,0,0,0-1.61,3q-6.16,31.38-12.2,62.78c-1.07,5.48-2.13,11-3.28,16.44a5.64,5.64,0,0,1-1.35,2.65Q372.85,509.32,346,536.61c-6.38,6.5-12.71,13.06-19.14,19.53a13.28,13.28,0,0,1-11,3.8c-4.29-.37-6.7-3.16-7.68-8-1.11-5.41,0-10.65,1.05-15.9q6-29.22,12-58.42a4.11,4.11,0,0,1,1.53-2.46c7.21-4.59,14.49-9.07,21.76-13.57a11.36,11.36,0,0,1,1.15-.52c-3.29,18.08-6.53,35.9-9.76,53.71l.48.23c3.59-3.49,7.2-7,10.77-10.49q16.17-15.9,32.28-31.84a6.32,6.32,0,0,0,1.62-3.06q4.56-23.51,8.93-47.07a19.84,19.84,0,0,0,.13-6.2c-.95-7-5.6-10.42-12.64-9.59-.53.06-1.07.09-2.13.17l8.73-7.72-52.5-53.58c-4.68,4.43-9.08,8.59-13.48,12.77-3.31,3.13-6.58,6.3-9.91,9.41-3.65,3.42-9.8,3.5-14.17.26-4-3-5.09-7.58-2.72-12.38a18,18,0,0,1,3.26-4.69c19.75-19.72,39.24-39.73,59.49-58.93,11.81-11.2,32.7-15.83,50.29-1.79,14.36,11.45,17.88,29.75,8.77,46.8a33.94,33.94,0,0,1-5.5,7.45c-7.58,7.8-15.34,15.42-23.17,23.25l15.7,16.87c2.28-2.51,4.49-4.89,6.63-7.33,18.07-20.57,35-42,49.11-65.54,6.49-10.81,10.94-22.5,15.77-34.06,7.5-18,15.06-35.92,20.64-54.61,1.21-4.05,2-8.21,2.89-12.35a41.29,41.29,0,0,0,.34-5.24C418.24,225,352,262.17,298.69,321.89c0-.79.06-1.31.1-1.83.44-6.65-3.1-10.44-9.78-9.84a122.6,122.6,0,0,0-12.94,2.4q-22.19,4.47-44.36,9A5.41,5.41,0,0,0,229,323q-21.27,21.15-42.45,42.4a7,7,0,0,0-.64.88L235.81,357c-2.53,6.26-5.21,12.12-7.23,18.2-1.41,4.2-3.71,5.93-8.13,6.72-21.61,3.88-43.11,8.36-64.72,12.25-4.43.79-8.7-1.3-11.62-4.94-2.61-3.25-1.88-6.94.07-10.13a48.61,48.61,0,0,1,6.91-9.13c22.29-22.27,44.72-44.4,67.06-66.63a9,9,0,0,1,5-2.4q38.61-7.24,77.2-14.62A11,11,0,0,0,305,283.7C329.18,263,354,243,382,227.58a444.25,444.25,0,0,1,121.32-45.52c.9-.2,1.8-.43,2.7-.64ZM369,351.55a1.69,1.69,0,0,0,.41-.24c7.74-6.92,15.67-13.66,23.15-20.85a14.29,14.29,0,0,0,4-15.21c-3.55-11-16.89-17.94-28.86-7.14-3.13,2.82-5.85,6.11-8.75,9.19-4,4.23-7.93,8.48-11.71,12.53Z" transform="translate(-83.31 -181.42)"/><path class="cls-1" d="M243.64,442.55C240,439.2,236.5,436,233,432.67c-2.2-2.09-4.17-4.44-6.48-6.4-5-4.27-6.3-9.69-4.3-15.59a154.15,154.15,0,0,1,7.6-18.33c11.65-23.78,25.52-46.3,39.83-68.56,4.45-6.92,13.51-8.22,18.85-3,3.61,3.57,4.18,8.51,1.09,12.61-18.1,23.91-31.12,50.75-44.67,77.28a3,3,0,0,0,0,2.68c4.75,4.73,9.64,9.32,15,14.43,1.25-1.48,2.35-2.95,3.62-4.25q12.3-12.64,24.65-25.21c3.94-4,9.82-5.14,14.25-2.8A9.52,9.52,0,0,1,307.61,406a16,16,0,0,1-4.56,8.51c-9.14,8.84-18.14,17.81-27.2,26.74-.39.38-.74.81-1.28,1.39,3.46,3.52,6.85,7,10.27,10.42,4.87,4.9,4.9,4.94,11.14,2.17,17.8-7.89,34.4-17.95,50.78-28.39,4.25-2.7,8.39-5.56,12.63-8.29,3.28-2.11,6.78-3.63,10.81-3,7,1.09,10.85,8.75,7.05,14.73a29,29,0,0,1-7.07,7.34c-10.91,8.17-23,14.5-35,20.75-13.05,6.76-26.24,13.25-39.39,19.81-4.36,2.17-8.94,3.15-13.63,1.2a16.1,16.1,0,0,1-4.73-3.15c-6.2-5.88-12.28-11.89-18.59-18-1.55,1.49-3,2.89-4.51,4.32-4.68,4.59-9.31,9.23-14,13.78-3,2.94-6.66,4.07-10.79,2.64s-6.76-4.24-7.34-8.65c-.5-3.86,1.18-7,3.81-9.66q7.58-7.69,15.15-15.38C241.78,444.58,242.41,443.88,243.64,442.55Z" transform="translate(-83.31 -181.42)"/><path class="cls-1" d="M219.56,493.54a10.35,10.35,0,0,1-3.36,7.69q-24.18,24-48.32,48c-5,5-9.92,10-14.93,14.91-2.87,2.81-6.24,4.33-10.39,3.74-8.72-1.23-10.26-10-7.42-15a13,13,0,0,1,2.15-2.86q31.54-31.69,63.14-63.36c7.44-7.46,16.43-2.41,18.67,4.62A15.65,15.65,0,0,1,219.56,493.54Z" transform="translate(-83.31 -181.42)"/><path class="cls-1" d="M275.19,509.51a11.92,11.92,0,0,1-3.26,8c-2.93,3.28-5.92,6.5-9,9.61q-19,19-38.11,37.86-6.56,6.48-13.25,12.85c-6.15,5.86-16.55,3.31-18.59-4.58-1-4,.44-7.4,3.26-10.21q27.64-27.46,55.34-54.88c1.7-1.69,3.35-3.44,5.1-5.08,6.3-5.91,15.75-3.66,18.13,4.3A17.71,17.71,0,0,1,275.19,509.51Z" transform="translate(-83.31 -181.42)"/><path class="cls-1" d="M191.88,426.59c4.51.47,8.07,2.43,9.93,6.75s.73,8-2.4,11.19c-7.68,7.82-15.43,15.57-23.15,23.35q-18.58,18.74-37.18,37.47c-4.2,4.22-9.86,5-14.16,2.16a10.35,10.35,0,0,1-3.56-13,19.56,19.56,0,0,1,3.82-5.45q29.55-29.67,59.22-59.22A9.68,9.68,0,0,1,191.88,426.59Z" transform="translate(-83.31 -181.42)"/><path class="cls-1" d="M83.31,668.26c1.68-4.62,5.15-5.94,9.79-5.74,5.26.23,10.54.05,16.13.05v-8.89c0-3.2-.09-6.4,0-9.6a8.43,8.43,0,0,1,5.25-7.93,227.3,227.3,0,0,1,66.16-17.56c6-.64,9.61,3,8.74,8.63-.51,3.29-2.95,5.29-6.92,5.89-6.07.92-12.17,1.75-18.19,3a247.87,247.87,0,0,0-38.9,11.74,3.09,3.09,0,0,0-1.81,2c-.17,4.13-.08,8.26-.08,13.12,5.3,0,10.7,0,16.11,0q6,0,12,.21c5.14.15,7.53,2.4,7.56,7s-2.44,7.27-7.24,7.28c-8.56,0-17.11-.08-25.67-.13H123c0,4.62-.1,9.14.1,13.64,0,.67,1.34,1.54,2.23,1.87,7.38,2.74,14.69,5.82,22.26,8,9.2,2.59,18.62,4.43,28,6.48,5.06,1.11,7.54,3.41,7.64,7.47a7.33,7.33,0,0,1-8.72,7.66,251.75,251.75,0,0,1-57.65-17.32c-.44-.18-.86-.41-1.31-.59-6.51-2.73-7.28-3.87-7.28-10.89V676.7c-5.68,0-11.18-.24-16.65.07-4,.23-6.85-.78-8.31-4.67Z" transform="translate(-83.31 -181.42)"/><path class="cls-1" d="M335.06,686.25v23.66H323.84V652.06h10.92c.08,1.44.15,2.83.22,4.07,2.06-1.26,4-3,6.19-3.71,9.06-3.07,21.56.35,24.35,14.09a25.7,25.7,0,0,1-1.34,15.27c-5,11.91-20.56,12.41-27.27,6.1C336.47,687.46,336,687.07,335.06,686.25Zm19.08-14.39H354a17.74,17.74,0,0,0,0-2.63c-.62-3.86-2.43-7-6.23-8.38a9,9,0,0,0-10,2c-3.62,3.51-3.55,8-2.64,12.52,1.07,5.32,4.56,8,9.64,7.66,5.46-.33,8.63-3.35,9.21-8.8C354.1,673.46,354.1,672.66,354.14,671.86Z" transform="translate(-83.31 -181.42)"/><path class="cls-1" d="M225.44,659.08c0,6.39-.21,12.46.09,18.5.16,3.36,3,5.18,6.72,5s6-2.35,6.1-6.07,0-7.49,0-11.39h11.33c-.36,5.42-.28,10.86-1.21,16.12-.87,4.93-4.64,8-9.32,9.45a24.07,24.07,0,0,1-16.23-.33c-5.43-2.07-8.85-6.13-9-11.89-.31-12.39-.1-24.79-.1-37.38h11.27v10.78h24.1v7.2Z" transform="translate(-83.31 -181.42)"/><path class="cls-1" d="M320.44,674h-30a9,9,0,0,0,5.74,8.94c4.07,1.45,8.58.36,10.94-2.57a3.83,3.83,0,0,1,1.62-1.11,5.09,5.09,0,0,1,1.66,0h9.18a16,16,0,0,1-6.53,9c-6.8,4.8-20.33,4.73-27.13-.07a16.58,16.58,0,0,1-7-11.83c-1-7.27-.64-14.28,5.24-19.74a14.41,14.41,0,0,1,3.47-2.51,25.92,25.92,0,0,1,22.91-.44c6,2.75,8.35,8.28,9.32,14.47C320.18,670,320.24,671.8,320.44,674Zm-12.5-6.81c0-4.58-3.49-7.52-8.58-7.52-4.81,0-8.51,3.22-8.52,7.52Z" transform="translate(-83.31 -181.42)"/><path class="cls-1" d="M409.87,679.23c-1.83,5.59-5.3,9.17-10.34,11a27.4,27.4,0,0,1-21.23-.84c-5.5-2.48-8.25-7.18-9.08-13-1-7.27-.67-14.27,5.17-19.76a14.73,14.73,0,0,1,3.27-2.4,25.78,25.78,0,0,1,23.1-.62c6.13,2.76,8.46,8.38,9.39,14.67.27,1.79.33,3.61.5,5.64H380.74a8.77,8.77,0,0,0,5.4,8.85c3.9,1.58,8.73.54,11.06-2.17a4.16,4.16,0,0,1,2.65-1.35C403,679.13,406.23,679.23,409.87,679.23ZM381,667.18h17.11c.18-4.23-3.09-7.26-7.93-7.5C385.18,659.44,381.31,662.54,381,667.18Z" transform="translate(-83.31 -181.42)"/><path class="cls-1" d="M455.32,674h-30a9.07,9.07,0,0,0,5.78,8.94c4.08,1.44,8.56.34,10.93-2.6a2.67,2.67,0,0,1,1.62-1.07c2.79-.11,5.59-.06,8.39-.06h2.45a16.13,16.13,0,0,1-6.36,8.93c-6.92,5-20.57,4.92-27.52-.11a16.55,16.55,0,0,1-6.74-11.69c-1-7.09-.8-14.08,5-19.34a23.1,23.1,0,0,1,7.76-4.49,26.54,26.54,0,0,1,14.68-.44c7.66,1.71,12.75,7.92,13.57,16.33C455,670.15,455.13,671.89,455.32,674Zm-12.5-6.82c0-4.58-3.5-7.52-8.58-7.52-4.82,0-8.52,3.23-8.51,7.52Z" transform="translate(-83.31 -181.42)"/><path class="cls-1" d="M208.63,691.18H197.07V669.23c0-.64,0-1.28,0-1.92-.31-6.07-2.52-7.16-7.95-7.06-5.71.11-8.34,3.16-8.36,8.89,0,7.27,0,14.54,0,22H169.34v-39h10.84v5.52c5.17-6.33,11.55-6.93,18.25-5.71s10.19,5.33,10.41,12.4c.28,8.7.06,17.42,0,26.14A3,3,0,0,1,208.63,691.18Z" transform="translate(-83.31 -181.42)"/><path class="cls-1" d="M484.45,678.42h11.62q2.63,6.69,11.1,5.55a10.12,10.12,0,0,0,3.88-1.1,3.86,3.86,0,0,0,1.78-2.71,3.59,3.59,0,0,0-1.82-2.69,71.33,71.33,0,0,0-6.86-2c-4.26-1.3-8.61-2.38-12.72-4.07-3.91-1.62-5.65-5-5.41-9.28a9,9,0,0,1,6-8.48,33,33,0,0,1,24.1-.23c4.58,1.69,6.77,5.32,7.15,10.83-3.47,0-6.94,0-10.4-.05-.32,0-.79-.55-.9-.93-.77-2.65-2.8-3.68-5.24-3.81a29.33,29.33,0,0,0-6.88.38,3.34,3.34,0,0,0-2.26,2.24,3.59,3.59,0,0,0,1.83,2.83c4,1.33,8.12,2.28,12.19,3.41a51.4,51.4,0,0,1,7.09,2.15,10,10,0,0,1,1.86,17.35,24.28,24.28,0,0,1-9.46,3.59,33.48,33.48,0,0,1-16.58-1C488.34,688.29,484.85,684.18,484.45,678.42Z" transform="translate(-83.31 -181.42)"/><path class="cls-1" d="M253.84,652H264.5v4.54c4.17-4.55,8.94-5.63,14.41-5v10.52a57.45,57.45,0,0,0-6.61.35c-4.63.75-7,3.71-7.05,8.53-.05,6.63,0,13.26,0,20.09h-11.4Z" transform="translate(-83.31 -181.42)"/><path class="cls-1" d="M459.21,691.12v-39h10.71c.08,1.34.14,2.58.2,3.65,2.18-1.22,4.24-2.8,6.57-3.54s5-.66,7.68-1v10.91a56.68,56.68,0,0,0-6.47.34c-4.81.77-7.18,3.68-7.21,8.62-.05,5.75,0,11.5,0,17.26v2.78Z" transform="translate(-83.31 -181.42)"/><path class="cls-1" d="M104.4,641.46V656.2c-3.28,0-6.46.22-9.61-.05C91,655.82,89,653,89,648.44c0-4,2-6.64,5.76-6.93C97.91,641.27,101.09,641.46,104.4,641.46Z" transform="translate(-83.31 -181.42)"/><path class="cls-1" d="M104.43,683.67v14.06a102.82,102.82,0,0,1-10.69-.09c-3.23-.34-4.74-3-4.75-7.23,0-3.49,1.77-6.3,4.91-6.65A97,97,0,0,1,104.43,683.67Z" transform="translate(-83.31 -181.42)"/></svg>