<svg id="Capa_1" data-name="Capa 1" xmlns="http://www.w3.org/2000/svg" viewBox="0 0 441.45 103.99"><defs><style>.cls-1{fill:#01c08c;}</style></defs><title>Entrepeers verde logotipo</title><path class="cls-1" d="M76.91,366.7c1.68-4.62,5.15-5.95,9.79-5.74,5.26.23,10.54.05,16.13.05v-8.89c0-3.2-.09-6.4,0-9.6a8.44,8.44,0,0,1,5.25-7.94A227.29,227.29,0,0,1,174.27,317c6-.64,9.61,3,8.74,8.63-.51,3.29-2.95,5.28-6.92,5.89-6.07.92-12.18,1.75-18.19,3A248.3,248.3,0,0,0,119,346.27a3.08,3.08,0,0,0-1.8,2c-.17,4.13-.08,8.27-.08,13.12,5.3,0,10.7,0,16.11,0,4,0,8,.09,12,.21,5.14.16,7.53,2.4,7.56,7s-2.44,7.27-7.24,7.28c-8.56,0-17.11-.09-25.67-.14h-3.22c0,4.63-.1,9.15.1,13.65,0,.66,1.34,1.53,2.22,1.86,7.39,2.75,14.7,5.83,22.26,8,9.21,2.6,18.63,4.43,28,6.49,5.06,1.1,7.54,3.4,7.64,7.47a7.33,7.33,0,0,1-8.72,7.66,251.75,251.75,0,0,1-57.65-17.32c-.44-.19-.87-.41-1.31-.6-6.51-2.72-7.28-3.86-7.28-10.88v-16.9c-5.68,0-11.18-.23-16.65.08-4,.23-6.85-.78-8.31-4.67Z" transform="translate(-76.91 -316.95)"/><path class="cls-1" d="M328.65,384.68v23.67H317.44V350.49h10.92c.08,1.45.15,2.84.22,4.08,2.06-1.26,4-3,6.19-3.71,9.05-3.07,21.56.35,24.35,14.08a25.66,25.66,0,0,1-1.35,15.28c-5,11.91-20.55,12.41-27.26,6.09C330.06,385.89,329.59,385.5,328.65,384.68Zm19.08-14.38h-.1a17.74,17.74,0,0,0,0-2.63c-.62-3.86-2.43-6.95-6.23-8.38a9,9,0,0,0-10,2c-3.62,3.51-3.55,8-2.64,12.52,1.07,5.31,4.56,8,9.64,7.66,5.46-.33,8.63-3.36,9.21-8.8C347.7,371.9,347.7,371.09,347.73,370.3Z" transform="translate(-76.91 -316.95)"/><path class="cls-1" d="M219,357.52c0,6.39-.21,12.45.09,18.49.16,3.37,3,5.19,6.72,5s6-2.35,6.1-6.08,0-7.48,0-11.39h11.33c-.37,5.42-.28,10.87-1.21,16.13-.87,4.93-4.64,8-9.32,9.45a24.13,24.13,0,0,1-16.23-.33c-5.43-2.08-8.85-6.13-9-11.9-.31-12.38-.1-24.78-.1-37.38h11.27v10.79h24.1v7.2Z" transform="translate(-76.91 -316.95)"/><path class="cls-1" d="M314,372.44H284a9,9,0,0,0,5.74,8.95c4.07,1.44,8.58.35,10.94-2.58a3.81,3.81,0,0,1,1.62-1.1,5.09,5.09,0,0,1,1.66,0h9.18a16,16,0,0,1-6.53,9.05c-6.8,4.79-20.33,4.73-27.13-.07a16.58,16.58,0,0,1-6.95-11.84c-1-7.27-.64-14.27,5.24-19.73a14.41,14.41,0,0,1,3.47-2.51,26,26,0,0,1,22.91-.45c6,2.75,8.35,8.29,9.31,14.48C313.78,368.4,313.84,370.24,314,372.44Zm-12.5-6.8c0-4.58-3.49-7.52-8.58-7.52-4.82,0-8.51,3.22-8.52,7.52Z" transform="translate(-76.91 -316.95)"/><path class="cls-1" d="M403.47,377.67c-1.83,5.59-5.3,9.17-10.35,11a27.36,27.36,0,0,1-21.23-.83c-5.49-2.48-8.24-7.18-9.07-13-1-7.26-.67-14.26,5.17-19.75a14.2,14.2,0,0,1,3.27-2.4,25.72,25.72,0,0,1,23.1-.62c6.13,2.76,8.46,8.38,9.39,14.67.27,1.79.33,3.6.5,5.64H374.34a8.76,8.76,0,0,0,5.4,8.85c3.9,1.58,8.73.54,11.06-2.17a4.19,4.19,0,0,1,2.65-1.36C396.63,377.57,399.83,377.67,403.47,377.67Zm-28.85-12.05h17.11c.18-4.23-3.09-7.27-7.93-7.5C378.78,357.88,374.91,361,374.62,365.62Z" transform="translate(-76.91 -316.95)"/><path class="cls-1" d="M448.91,372.45h-30a9.05,9.05,0,0,0,5.78,8.94c4.08,1.44,8.56.35,10.93-2.59a2.73,2.73,0,0,1,1.62-1.08c2.79-.11,5.59-.05,8.39-.05h2.45a16.07,16.07,0,0,1-6.36,8.92c-6.92,5-20.57,4.92-27.52-.1a16.55,16.55,0,0,1-6.74-11.7c-1-7.08-.8-14.08,5-19.33a22.93,22.93,0,0,1,7.76-4.49,26.5,26.5,0,0,1,14.67-.44c7.67,1.71,12.76,7.92,13.58,16.32C448.58,368.59,448.73,370.33,448.91,372.45Zm-12.49-6.81c0-4.59-3.5-7.52-8.58-7.52-4.82,0-8.52,3.23-8.52,7.52Z" transform="translate(-76.91 -316.95)"/><path class="cls-1" d="M202.23,389.62H190.67v-22c0-.64,0-1.28,0-1.91-.3-6.08-2.51-7.16-7.94-7.06-5.71.11-8.34,3.16-8.36,8.89,0,7.27,0,14.53,0,22H162.94V350.51h10.84V356c5.17-6.33,11.54-6.94,18.25-5.71s10.19,5.33,10.41,12.4c.28,8.7.06,17.42.05,26.14A3.42,3.42,0,0,1,202.23,389.62Z" transform="translate(-76.91 -316.95)"/><path class="cls-1" d="M478.05,376.86h11.62c1.75,4.45,5.45,6.31,11.1,5.54a10.11,10.11,0,0,0,3.88-1.09,3.89,3.89,0,0,0,1.78-2.72,3.6,3.6,0,0,0-1.82-2.68,68.58,68.58,0,0,0-6.86-2c-4.26-1.3-8.62-2.38-12.72-4.07-3.91-1.62-5.65-5-5.41-9.28a9,9,0,0,1,6-8.49,33,33,0,0,1,24.1-.22c4.58,1.69,6.77,5.31,7.15,10.82-3.48,0-6.94,0-10.41,0-.31,0-.78-.55-.89-.93-.77-2.65-2.8-3.68-5.24-3.81a29.85,29.85,0,0,0-6.88.37c-.91.17-2.24,1.44-2.26,2.25A3.59,3.59,0,0,0,493,363.3c4,1.33,8.12,2.29,12.19,3.42a51.37,51.37,0,0,1,7.09,2.14,10,10,0,0,1,1.86,17.35,24.45,24.45,0,0,1-9.46,3.6,33.71,33.71,0,0,1-16.58-1C481.93,386.73,478.45,382.62,478.05,376.86Z" transform="translate(-76.91 -316.95)"/><path class="cls-1" d="M247.44,350.47H258.1V355c4.17-4.55,8.94-5.63,14.41-5v10.51a60.09,60.09,0,0,0-6.62.36c-4.62.75-7,3.71-7,8.52-.05,6.63,0,13.26,0,20.1h-11.4Z" transform="translate(-76.91 -316.95)"/><path class="cls-1" d="M452.81,389.56V350.51h10.71c.07,1.34.14,2.58.2,3.65,2.18-1.22,4.24-2.8,6.57-3.54s5-.67,7.68-1v10.9a61.66,61.66,0,0,0-6.47.34c-4.81.78-7.18,3.68-7.21,8.62-.05,5.76,0,11.51,0,17.26v2.79Z" transform="translate(-76.91 -316.95)"/><path class="cls-1" d="M98,339.9v14.74c-3.28,0-6.46.21-9.61-.06-3.83-.33-5.83-3.2-5.8-7.7,0-4,2.06-6.64,5.77-6.93C91.51,339.71,94.69,339.9,98,339.9Z" transform="translate(-76.91 -316.95)"/><path class="cls-1" d="M98,382.11v14.05a102.67,102.67,0,0,1-10.68-.08c-3.23-.34-4.74-3-4.75-7.23,0-3.49,1.77-6.31,4.91-6.65A96.87,96.87,0,0,1,98,382.11Z" transform="translate(-76.91 -316.95)"/></svg>