<?xml version="1.0" encoding="UTF-8"?>
<svg id="Capa_1" data-name="Capa 1" xmlns="http://www.w3.org/2000/svg" version="1.1" viewBox="0 0 437.2 541.1">
  <defs>
    <style>
      .cls-1 {
        fill: none;
      }

      .cls-1, .cls-2, .cls-3 {
        stroke-width: 0px;
      }

      .cls-2 {
        fill: #00c08c;
      }

      .cls-3 {
        fill: #8a8a8a;
      }
    </style>
  </defs>
  <path class="cls-2" d="M428.5,2c8.1,3,9.9,6.3,8,14.7-4.8,20.4-10.3,40.7-17.1,60.6-15.3,45-38.4,85.6-67.9,122.6-5.1,6.3-11.2,11.9-16.7,17.8-.8.8-1.3,1.9-1.6,3-4.1,20.9-8.2,41.8-12.2,62.8-1.1,5.5-2.1,11-3.3,16.4-.2,1-.7,1.9-1.4,2.6-17.9,18.3-35.7,36.5-53.6,54.7-6.4,6.5-12.7,13.1-19.1,19.5-2.9,2.9-6.9,4.3-11,3.8-4.3-.4-6.7-3.2-7.7-8-1.1-5.4,0-10.7,1-15.9,4-19.5,8-39,12-58.4.2-1,.7-1.9,1.5-2.5,7.2-4.6,14.5-9.1,21.8-13.6.4-.2.8-.4,1.1-.5-3.3,18.1-6.5,35.9-9.8,53.7l.5.2c3.6-3.5,7.2-7,10.8-10.5,10.8-10.6,21.5-21.2,32.3-31.8.8-.8,1.4-1.9,1.6-3.1,3-15.7,6-31.4,8.9-47.1.4-2,.4-4.1.1-6.2-1-7-5.6-10.4-12.6-9.6-.5,0-1.1,0-2.1.2l8.7-7.7-52.5-53.6c-4.7,4.4-9.1,8.6-13.5,12.8-3.3,3.1-6.6,6.3-9.9,9.4-3.6,3.4-9.8,3.5-14.2.3-4-3-5.1-7.6-2.7-12.4.8-1.7,1.9-3.3,3.3-4.7,19.8-19.7,39.2-39.7,59.5-58.9,11.8-11.2,32.7-15.8,50.3-1.8,14.4,11.5,17.9,29.8,8.8,46.8-1.5,2.7-3.3,5.2-5.5,7.5-7.6,7.8-15.3,15.4-23.2,23.2l15.7,16.9c2.3-2.5,4.5-4.9,6.6-7.3,18.1-20.6,35-42,49.1-65.5,6.5-10.8,10.9-22.5,15.8-34.1,7.5-18,15.1-35.9,20.6-54.6,1.2-4.1,2-8.2,2.9-12.4.2-1.7.3-3.5.3-5.2-77.3,19.5-143.5,56.7-196.8,116.4,0-.8,0-1.3.1-1.8.4-6.6-3.1-10.4-9.8-9.8-4.4.6-8.7,1.4-12.9,2.4-14.8,3-29.6,6-44.4,9-1,.2-2,.7-2.7,1.4-14.2,14.1-28.3,28.2-42.4,42.4-.2.3-.4.6-.6.9l49.9-9.3c-2.5,6.3-5.2,12.1-7.2,18.2-1.4,4.2-3.7,5.9-8.1,6.7-21.6,3.9-43.1,8.4-64.7,12.2-4.4.8-8.7-1.3-11.6-4.9-2.6-3.2-1.9-6.9,0-10.1,1.9-3.3,4.3-6.4,6.9-9.1,22.3-22.3,44.7-44.4,67.1-66.6,1.4-1.3,3.1-2.1,5-2.4,25.7-4.8,51.5-9.7,77.2-14.6,1.7-.5,3.3-1.4,4.6-2.6,24.2-20.7,49-40.7,77-56.1,38-21.3,78.9-36.6,121.3-45.8.9-.2,1.8-.4,2.7-.6h5.8ZM285.7,172.1c.1,0,.3-.1.4-.2,7.7-6.9,15.7-13.7,23.1-20.9,4.3-3.8,5.8-9.8,4-15.2-3.5-11-16.9-17.9-28.9-7.1-3.1,2.8-5.9,6.1-8.8,9.2-4,4.2-7.9,8.5-11.7,12.5l21.8,21.7h.1Z"/>
  <path class="cls-3" d="M160.3,263.1c-3.6-3.3-7.1-6.5-10.6-9.9-2.2-2.1-4.2-4.4-6.5-6.4-5-4.3-6.3-9.7-4.3-15.6,2.1-6.3,4.7-12.4,7.6-18.3,11.6-23.8,25.5-46.3,39.8-68.6,4.5-6.9,13.5-8.2,18.9-3,3.6,3.6,4.2,8.5,1.1,12.6-18.1,23.9-31.1,50.8-44.7,77.3-.4.8-.4,1.8,0,2.7,4.8,4.7,9.6,9.3,15,14.4,1.2-1.5,2.4-3,3.6-4.2,8.2-8.4,16.4-16.8,24.6-25.2,3.9-4,9.8-5.1,14.2-2.8,3.9,1.9,6,6.2,5.2,10.5-.6,3.2-2.2,6.2-4.6,8.5-9.1,8.8-18.1,17.8-27.2,26.7-.4.4-.7.8-1.3,1.4,3.5,3.5,6.9,7,10.3,10.4,3.3,3.3,7,4,11.1,2.2,17.8-7.9,34.4-18,50.8-28.4,4.2-2.7,8.4-5.6,12.6-8.3,3.3-2.1,6.8-3.6,10.8-3,7,1.1,10.9,8.8,7,14.7-1.9,2.8-4.3,5.3-7.1,7.3-10.9,8.2-23,14.5-35,20.8-13,6.8-26.2,13.2-39.4,19.8-4.4,2.2-8.9,3.1-13.6,1.2-1.8-.8-3.4-1.8-4.7-3.1-6.2-5.9-12.3-11.9-18.6-18-1.5,1.5-3,2.9-4.5,4.3-4.7,4.6-9.3,9.2-14,13.8-3,2.9-6.7,4.1-10.8,2.6s-6.8-4.2-7.3-8.6c-.5-3.9,1.2-7,3.8-9.7,5.1-5.1,10.1-10.3,15.1-15.4.6-.7,1.3-1.4,2.5-2.7h.2Z"/>
  <path class="cls-3" d="M136.2,314.1c0,2.9-1.2,5.7-3.4,7.7-16.1,16-32.2,32-48.3,48-5,5-9.9,10-14.9,14.9-2.9,2.8-6.2,4.3-10.4,3.7-8.7-1.2-10.3-10-7.4-15,.6-1,1.3-2,2.1-2.9,21-21.1,42.1-42.2,63.1-63.4,7.4-7.5,16.4-2.4,18.7,4.6.2.7.4,1.5.5,2.3h0Z"/>
  <path class="cls-3" d="M191.9,330.1c0,3-1.2,5.8-3.3,8-2.9,3.3-5.9,6.5-9,9.6-12.7,12.7-25.4,25.3-38.1,37.9-4.4,4.3-8.8,8.6-13.2,12.8-6.1,5.9-16.6,3.3-18.6-4.6-1-4,.4-7.4,3.3-10.2,18.4-18.3,36.9-36.6,55.3-54.9,1.7-1.7,3.4-3.4,5.1-5.1,6.3-5.9,15.8-3.7,18.1,4.3.2.7.3,1.4.4,2.1h0Z"/>
  <path class="cls-3" d="M108.6,247.2c4.5.5,8.1,2.4,9.9,6.8,1.8,4.4.7,8-2.4,11.2-7.7,7.8-15.4,15.6-23.1,23.4-12.4,12.5-24.8,25-37.2,37.5-4.2,4.2-9.9,5-14.2,2.2-4.2-2.9-5.7-8.4-3.6-13,1-2,2.2-3.9,3.8-5.5,19.7-19.8,39.4-39.5,59.2-59.2,1.9-2.1,4.6-3.3,7.5-3.2v-.2h0Z"/>
  <path class="cls-3" d="M-3.9,477c1.7-4.6,5.2-6,9.8-5.7,5.3.2,10.5,0,16.1,0v-18.5c0-3.5,2-6.6,5.2-7.9,21-9.2,43.4-15.1,66.2-17.6,6-.6,9.6,3,8.7,8.6-.5,3.3-2.9,5.3-6.9,5.9-6.1.9-12.2,1.8-18.2,3-13.3,2.8-26.3,6.8-38.9,11.7-.9.4-1.5,1.1-1.8,2-.2,4.1,0,8.3,0,13.1h16.1c4,0,8,0,12,.2,5.1.2,7.5,2.4,7.6,7,0,4.6-2.4,7.3-7.2,7.3h-28.9v13.6c0,.7,1.3,1.5,2.2,1.9,7.4,2.8,14.7,5.8,22.3,8,9.2,2.6,18.6,4.4,28,6.5,5.1,1.1,7.5,3.4,7.6,7.5.3,4-2.8,7.5-6.8,7.8h-1.9c-19.8-3.4-39.2-9.3-57.7-17.3-.4-.2-.9-.4-1.3-.6-6.5-2.7-7.3-3.9-7.3-10.9v-16.9c-5.7,0-11.2-.2-16.7,0-4,.2-6.8-.8-8.3-4.7v-3.9h.1Z"/>
  <path class="cls-3" d="M130.4,467.8c0,6.4-.2,12.5,0,18.5.2,3.4,3,5.2,6.7,5s6-2.4,6.1-6.1,0-7.5,0-11.4h11.3c-.4,5.4-.3,10.9-1.2,16.1-.9,4.9-4.6,8-9.3,9.5-5.3,1.8-11,1.7-16.2-.3-5.4-2.1-8.9-6.1-9-11.9-.3-12.4,0-24.8,0-37.4h11.3v10.8h24.1v7.2h-23.8Z"/>
  <path class="cls-3" d="M225.4,482.8h-30c-.2,3.9,2.1,7.5,5.7,9,4.1,1.4,8.6.4,10.9-2.6.4-.5,1-.9,1.6-1.1h10.9c-1,3.7-3.3,6.9-6.5,9-6.8,4.8-20.3,4.7-27.1,0-3.9-2.8-6.5-7.1-7-11.8-1-7.3-.6-14.3,5.2-19.7,1-1,2.2-1.9,3.5-2.5,7.2-3.7,15.6-3.9,22.9-.5,6,2.8,8.4,8.3,9.3,14.5.3,1.8.4,3.6.5,5.8h.1ZM212.9,476c0-4.6-3.5-7.5-8.6-7.5s-8.5,3.2-8.5,7.5h17.1Z"/>
  <path class="cls-2" d="M323.9,488c-1.8,5.6-5.3,9.2-10.4,11-6.9,2.6-14.6,2.3-21.2-.8-5.5-2.5-8.2-7.2-9.1-13-1-7.3-.7-14.3,5.2-19.8,1-1,2.1-1.8,3.3-2.4,7.2-3.8,15.7-4.1,23.1-.6,6.1,2.8,8.5,8.4,9.4,14.7.3,1.8.3,3.6.5,5.6h-29.9c-.3,3.8,1.9,7.4,5.4,8.9,3.9,1.6,8.7.5,11.1-2.2.7-.8,1.6-1.2,2.6-1.4h10ZM295.1,475.9h17.1c.2-4.2-3.1-7.3-7.9-7.5-5-.2-8.9,2.9-9.2,7.5h0Z"/>
  <path class="cls-2" d="M368.8,482.8h-30c-.2,3.9,2.1,7.5,5.8,8.9,4.1,1.4,8.6.4,10.9-2.6.4-.5,1-.9,1.6-1.1h10.9c-1,3.6-3.3,6.8-6.4,8.9-6.9,5-20.6,4.9-27.5,0-3.8-2.8-6.3-7-6.7-11.7-1-7.1-.8-14.1,5-19.3,2.3-2,4.9-3.5,7.8-4.5,4.8-1.5,9.8-1.7,14.7-.4,7.7,1.7,12.8,7.9,13.6,16.3.1,1.7.3,3.5.4,5.6h0ZM356.3,476c0-4.6-3.5-7.5-8.6-7.5s-8.5,3.2-8.5,7.5h17.1Z"/>
  <path class="cls-3" d="M115.1,499.9h-11.6v-23.9c-.3-6.1-2.5-7.2-7.9-7.1-5.7,0-8.3,3.2-8.4,8.9v22h-11.4v-39h10.8v5.5c5.2-6.3,11.5-6.9,18.2-5.7s10.2,5.3,10.4,12.4c.3,8.7,0,17.4,0,26.1s0,.5-.3.8h.2Z"/>
  <path class="cls-2" d="M397.2,487.2h11.6c1.8,4.5,5.5,6.3,11.1,5.5,1.4,0,2.7-.5,3.9-1.1,1-.6,1.6-1.6,1.8-2.7-.1-1.1-.8-2.1-1.8-2.7-2.3-.8-4.5-1.5-6.9-2-4.3-1.3-8.6-2.4-12.7-4.1-3.9-1.6-5.6-5-5.4-9.3,0-3.8,2.4-7.2,6-8.5,7.7-3.1,16.3-3.2,24.1-.2,4.6,1.7,6.8,5.3,7.1,10.8h-10.4c-.3,0-.8-.5-.9-.9-.8-2.6-2.8-3.7-5.2-3.8-2.3,0-4.6,0-6.9.4-.9.2-2.2,1.4-2.3,2.2.1,1.2.8,2.2,1.8,2.7,4,1.3,8.1,2.3,12.2,3.4,2.4.5,4.8,1.3,7.1,2.1,5.1,2.2,7.4,8,5.3,13.1-.7,1.7-1.9,3.2-3.4,4.2-2.9,1.8-6.1,3.1-9.5,3.6-5.5,1.1-11.2.7-16.6-1-6.2-2.1-9.7-6.2-10.1-12v.3h0Z"/>
  <path class="cls-3" d="M158.5,460.8h10.7v4.5c4.2-4.5,8.9-5.6,14.4-5v10.5c-2.2,0-4.4,0-6.6.4-4.6.8-7,3.7-7,8.5v20.1h-11.4v-39h0Z"/>
  <path class="cls-2" d="M371,499.9v-39h10.7c0,1.3.1,2.6.2,3.6,2.2-1.2,4.2-2.8,6.6-3.5s5-.7,7.7-1v10.9c-2.2,0-4.3,0-6.5.3-4.8.8-7.2,3.7-7.2,8.6v20.1h-11.5Z"/>
  <path class="cls-3" d="M17.2,450.2v14.7c-3.3,0-6.5.2-9.6,0-3.8-.3-5.8-3.2-5.8-7.7s2.1-6.6,5.8-6.9c3.2-.2,6.3,0,9.6,0h0Z"/>
  <path class="cls-3" d="M17.2,492.4v14c-3.6.2-7.1,0-10.7,0-3.2-.3-4.7-3-4.8-7.2,0-3.5,1.8-6.3,4.9-6.6,3.5-.2,7-.3,10.5,0v-.2h.1Z"/>
  <g>
    <path class="cls-1" d="M267.5,441.7h-23.6v21.1h22.2c9.4-.9,8.5-10.9,8.5-10.9,0-10.2-7.1-10.2-7.1-10.2Z"/>
    <path class="cls-2" d="M288.4,452.5c0-24.2-20.2-25.2-20.2-25.2h-62c-3.4,0-6.1,3.2-6.1,7.2s2.7,7.2,6.1,7.2h22.4l.3,82c0,8.4,7.7,7.6,7.7,7.6,6.7,0,7.2-7,7.2-7v-47.6l24.2-.3c21.8-2.4,20.3-23.9,20.3-23.9h.1ZM266.1,462.7h-22.2v-21h23.6s7.1,0,7.1,10.2c0,0,.9,9.9-8.5,10.8Z"/>
  </g>
</svg>