<?xml version="1.0" encoding="UTF-8"?>
<svg id="Capa_1" data-name="Capa 1" xmlns="http://www.w3.org/2000/svg" version="1.1" viewBox="0 0 441.5 120.2">
  <defs>
    <style>
      .cls-1 {
        fill: #020000;
      }

      .cls-1, .cls-2 {
        stroke-width: 0px;
      }

      .cls-2 {
        fill: none;
      }
    </style>
  </defs>
  <path class="cls-1" d="M0,57.9c1.7-4.6,5.2-6,9.8-5.7,5.3.2,10.5,0,16.1,0v-18.5c0-3.5,2-6.6,5.2-7.9,21-9.2,43.4-15.1,66.2-17.6,6-.6,9.6,3,8.7,8.6-.5,3.3-2.9,5.3-6.9,5.9-6.1.9-12.2,1.8-18.2,3-13.3,2.8-26.3,6.8-38.9,11.7-.9.4-1.5,1.1-1.8,2-.2,4.1,0,8.3,0,13.1h16.1c4,0,8,0,12,.2,5.1.2,7.5,2.4,7.6,7,0,4.6-2.4,7.3-7.2,7.3h-28.9v13.6c0,.7,1.3,1.5,2.2,1.9,7.4,2.8,14.7,5.8,22.3,8,9.2,2.6,18.6,4.4,28,6.5,5.1,1.1,7.5,3.4,7.6,7.5.3,4-2.8,7.5-6.8,7.8h-1.9c-19.8-3.4-39.2-9.3-57.7-17.3-.4-.2-.9-.4-1.3-.6-6.5-2.7-7.3-3.9-7.3-10.9v-16.9c-5.7,0-11.2-.2-16.7,0-4,.2-6.8-.8-8.3-4.7v-3.9h.1Z"/>
  <path class="cls-1" d="M134.3,48.7c0,6.4-.2,12.5,0,18.5.2,3.4,3,5.2,6.7,5s6-2.4,6.1-6.1,0-7.5,0-11.4h11.3c-.4,5.4-.3,10.9-1.2,16.1-.9,4.9-4.6,8-9.3,9.5-5.3,1.8-11,1.7-16.2-.3-5.4-2.1-8.9-6.1-9-11.9-.3-12.4,0-24.8,0-37.4h11.3v10.8h24.1v7.2h-23.8Z"/>
  <path class="cls-1" d="M229.3,63.7h-30c-.2,3.9,2.1,7.5,5.7,9,4.1,1.4,8.6.4,10.9-2.6.4-.5,1-.9,1.6-1.1h10.9c-1,3.7-3.3,6.9-6.5,9-6.8,4.8-20.3,4.7-27.1,0-3.9-2.8-6.5-7.1-7-11.8-1-7.3-.6-14.3,5.2-19.7,1-1,2.2-1.9,3.5-2.5,7.2-3.7,15.6-3.9,22.9-.5,6,2.8,8.4,8.3,9.3,14.5.3,1.8.4,3.6.5,5.8h.1ZM216.8,56.9c0-4.6-3.5-7.5-8.6-7.5s-8.5,3.2-8.5,7.5h17.1Z"/>
  <path class="cls-1" d="M327.8,68.9c-1.8,5.6-5.3,9.2-10.4,11-6.9,2.6-14.6,2.3-21.2-.8-5.5-2.5-8.2-7.2-9.1-13-1-7.3-.7-14.3,5.2-19.8,1-1,2.1-1.8,3.3-2.4,7.2-3.8,15.7-4.1,23.1-.6,6.1,2.8,8.5,8.4,9.4,14.7.3,1.8.3,3.6.5,5.6h-29.9c-.3,3.8,1.9,7.4,5.4,8.9,3.9,1.6,8.7.5,11.1-2.2.7-.8,1.6-1.2,2.6-1.4h10ZM299,56.8h17.1c.2-4.2-3.1-7.3-7.9-7.5-5-.2-8.9,2.9-9.2,7.5h0Z"/>
  <path class="cls-1" d="M372.7,63.7h-30c-.2,3.9,2.1,7.5,5.8,8.9,4.1,1.4,8.6.4,10.9-2.6.4-.5,1-.9,1.6-1.1h10.9c-1,3.6-3.3,6.8-6.4,8.9-6.9,5-20.6,4.9-27.5,0-3.8-2.8-6.3-7-6.7-11.7-1-7.1-.8-14.1,5-19.3,2.3-2,4.9-3.5,7.8-4.5,4.8-1.5,9.8-1.7,14.7-.4,7.7,1.7,12.8,7.9,13.6,16.3.1,1.7.3,3.5.4,5.6h0ZM360.2,56.9c0-4.6-3.5-7.5-8.6-7.5s-8.5,3.2-8.5,7.5h17.1Z"/>
  <path class="cls-1" d="M119,80.8h-11.6v-23.9c-.3-6.1-2.5-7.2-7.9-7.1-5.7,0-8.3,3.2-8.4,8.9v22h-11.4v-39h10.8v5.5c5.2-6.3,11.5-6.9,18.2-5.7s10.2,5.3,10.4,12.4c.3,8.7,0,17.4,0,26.1s0,.5-.3.8h.2Z"/>
  <path class="cls-1" d="M401.1,68.1h11.6c1.8,4.5,5.5,6.3,11.1,5.5,1.4,0,2.7-.5,3.9-1.1,1-.6,1.6-1.6,1.8-2.7-.1-1.1-.8-2.1-1.8-2.7-2.3-.8-4.5-1.5-6.9-2-4.3-1.3-8.6-2.4-12.7-4.1-3.9-1.6-5.6-5-5.4-9.3,0-3.8,2.4-7.2,6-8.5,7.7-3.1,16.3-3.2,24.1-.2,4.6,1.7,6.8,5.3,7.1,10.8h-10.4c-.3,0-.8-.5-.9-.9-.8-2.6-2.8-3.7-5.2-3.8-2.3,0-4.6,0-6.9.4-.9.2-2.2,1.4-2.3,2.2.1,1.2.8,2.2,1.8,2.7,4,1.3,8.1,2.3,12.2,3.4,2.4.5,4.8,1.3,7.1,2.1,5.1,2.2,7.4,8,5.3,13.1-.7,1.7-1.9,3.2-3.4,4.2-2.9,1.8-6.1,3.1-9.5,3.6-5.5,1.1-11.2.7-16.6-1-6.2-2.1-9.7-6.2-10.1-12v.3h0Z"/>
  <path class="cls-1" d="M162.4,41.7h10.7v4.5c4.2-4.5,8.9-5.6,14.4-5v10.5c-2.2,0-4.4,0-6.6.4-4.6.8-7,3.7-7,8.5v20.1h-11.4v-39h0Z"/>
  <path class="cls-1" d="M374.9,80.8v-39h10.7c0,1.3.1,2.6.2,3.6,2.2-1.2,4.2-2.8,6.6-3.5s5-.7,7.7-1v10.9c-2.2,0-4.3,0-6.5.3-4.8.8-7.2,3.7-7.2,8.6v20.1h-11.5Z"/>
  <path class="cls-1" d="M21.1,31.1v14.7c-3.3,0-6.5.2-9.6,0-3.8-.3-5.8-3.2-5.8-7.7s2.1-6.6,5.8-6.9c3.2-.2,6.3,0,9.6,0h0Z"/>
  <path class="cls-1" d="M21.1,73.3v14c-3.6.2-7.1,0-10.7,0-3.2-.3-4.7-3-4.8-7.2,0-3.5,1.8-6.3,4.9-6.6,3.5-.2,7-.3,10.5,0v-.2h.1Z"/>
  <g>
    <path class="cls-2" d="M271.4,22.6h-23.6v21.1h22.2c9.4-.9,8.5-10.9,8.5-10.9,0-10.2-7.1-10.2-7.1-10.2Z"/>
    <path class="cls-1" d="M292.3,33.4c0-24.2-20.2-25.2-20.2-25.2h-62c-3.4,0-6.1,3.2-6.1,7.2s2.7,7.2,6.1,7.2h22.4l.3,82c0,8.4,7.7,7.6,7.7,7.6,6.7,0,7.2-7,7.2-7v-47.6l24.2-.3c21.8-2.4,20.3-23.9,20.3-23.9h.1ZM270,43.6h-22.2v-21h23.6s7.1,0,7.1,10.2c0,0,.9,9.9-8.5,10.8Z"/>
  </g>
</svg>